<svg width="488" height="132" viewBox="0 0 488 132" fill="none" xmlns="http://www.w3.org/2000/svg">
<path d="M175.249 103L205.63 29.5879H215.84L246.221 103H233.321L225.054 82.4805L223.809 77.8984L210.909 44.8779H210.511L197.661 77.8984L196.416 82.4805L188.148 103H175.249ZM190.688 85.7676V75.2588H230.731V85.7676H190.688ZM271.771 103.797C267.952 103.797 264.549 102.983 261.561 101.356C258.572 99.7295 256.215 97.3721 254.488 94.2842C252.795 91.1631 251.948 87.3779 251.948 82.9287V49.8584H263.702V81.7334C263.702 85.6182 264.748 88.54 266.84 90.499C268.932 92.458 271.455 93.4375 274.41 93.4375C276.701 93.4375 278.693 92.9395 280.387 91.9434C282.113 90.9141 283.458 89.5195 284.421 87.7598C285.417 86 285.915 83.9912 285.915 81.7334V49.8584H297.669V86.3652C297.669 88.4902 297.951 90.0674 298.516 91.0967C299.08 92.126 300.226 92.9727 301.952 93.6367L297.619 103.797C294.531 102.701 292.157 101.307 290.497 99.6133C288.837 97.8867 288.007 95.9609 288.007 93.8359L291.742 96.4258H285.068L290.796 92.7402C289.103 95.7949 286.662 98.4014 283.475 100.56C280.287 102.718 276.386 103.797 271.771 103.797ZM331.437 103.797C325.792 103.797 321.525 102.203 318.637 99.0156C315.781 95.8281 314.354 91.7441 314.354 86.7637V33.5225H326.107V85.917C326.107 88.4736 326.705 90.3496 327.9 91.5449C329.096 92.7402 330.59 93.3379 332.383 93.3379C333.18 93.3379 333.927 93.2383 334.624 93.0391C335.321 92.8066 335.952 92.541 336.517 92.2422L340.551 101.854C339.322 102.452 337.944 102.917 336.417 103.249C334.89 103.614 333.229 103.797 331.437 103.797ZM305.588 59.6699V49.8584H338.857V59.6699H305.588ZM348.47 103V26.3008H360.224V55.4365H362.614L358.082 60.0186C358.812 57.6611 360.058 55.6689 361.817 54.042C363.61 52.3818 365.719 51.1367 368.143 50.3066C370.6 49.4766 373.206 49.0615 375.962 49.0615C380.245 49.0615 383.748 49.9912 386.471 51.8506C389.227 53.6768 391.252 56.0674 392.547 59.0225C393.842 61.9775 394.489 65.165 394.489 68.585V103H382.735V71.0752C382.735 67.1572 381.739 64.2188 379.747 62.2598C377.788 60.2676 375.182 59.2715 371.928 59.2715C369.736 59.2715 367.761 59.7197 366.001 60.6162C364.274 61.5127 362.88 62.8408 361.817 64.6006C360.755 66.3604 360.224 68.5518 360.224 71.1748V103H348.47ZM411.921 103.797C409.763 103.797 407.92 103.05 406.393 101.556C404.898 100.028 404.151 98.1855 404.151 96.0273C404.151 93.8691 404.898 92.043 406.393 90.5488C407.92 89.0547 409.763 88.3076 411.921 88.3076C414.079 88.3076 415.905 89.0547 417.399 90.5488C418.894 92.043 419.641 93.8691 419.641 96.0273C419.641 98.1855 418.894 100.028 417.399 101.556C415.905 103.05 414.079 103.797 411.921 103.797ZM430 103V49.8584H441.754V103H430ZM435.877 42.4375C433.652 42.4375 431.776 41.6738 430.249 40.1465C428.755 38.6191 428.008 36.7598 428.008 34.5684C428.008 32.377 428.755 30.5176 430.249 28.9902C431.776 27.4629 433.652 26.6992 435.877 26.6992C438.068 26.6992 439.928 27.4629 441.455 28.9902C442.982 30.5176 443.746 32.377 443.746 34.5684C443.746 36.7598 442.982 38.6191 441.455 40.1465C439.928 41.6738 438.068 42.4375 435.877 42.4375ZM476.069 103.797C470.425 103.797 466.158 102.203 463.27 99.0156C460.414 95.8281 458.986 91.7441 458.986 86.7637V33.5225H470.74V85.917C470.74 88.4736 471.338 90.3496 472.533 91.5449C473.729 92.7402 475.223 93.3379 477.016 93.3379C477.812 93.3379 478.56 93.2383 479.257 93.0391C479.954 92.8066 480.585 92.541 481.149 92.2422L485.184 101.854C483.955 102.452 482.577 102.917 481.05 103.249C479.522 103.614 477.862 103.797 476.069 103.797ZM450.221 59.6699V49.8584H483.49V59.6699H450.221Z" fill="black"/>
<path fill-rule="evenodd" clip-rule="evenodd" d="M37.5993 132C42.0176 132 45.5993 128.418 45.5993 124V87.5794C45.5993 87.3898 45.6061 87.2006 45.6195 87.012C40.8896 83.2559 37.868 77.5287 37.868 71.1125C37.868 59.7989 47.2629 50.6274 58.852 50.6274C70.4411 50.6274 79.8359 59.7989 79.8359 71.1125C79.8359 77.3404 76.989 82.9192 72.4964 86.6763C72.5446 87.032 72.569 87.3913 72.569 87.752V124C72.569 128.418 76.1508 132 80.569 132H108.613C114.133 132 117.994 126.541 116.156 121.336L77.6661 12.3362C76.5369 9.13836 73.514 7 70.1226 7H46.5514C43.1613 7 40.1393 9.13673 39.0091 12.3329L0.464361 121.333C-1.37651 126.539 2.48499 132 8.00667 132H37.5993Z" fill="black"/>
</svg>
