<svg width="229" height="252" viewBox="0 0 229 252" fill="none" xmlns="http://www.w3.org/2000/svg">
  <path d="M92.3159 0.725347C93.3759 0.715347 94.4359 0.705347 95.5359 0.695347C96.6759 0.695347 97.8159 0.695347 98.9959 0.695347C100.166 0.695347 101.346 0.695347 102.566 0.685347C105.056 0.685347 107.546 0.675347 110.046 0.685347C113.856 0.685347 117.666 0.665347 121.476 0.635347C123.896 0.635347 126.316 0.635347 128.746 0.635347C129.876 0.625347 131.016 0.615347 132.186 0.605347C138.746 0.645347 143.426 0.845346 148.536 5.35535C153.316 10.2753 155.156 15.9953 157.216 22.4253C157.586 23.5353 157.956 24.6553 158.346 25.8053C159.556 29.4453 160.746 33.0953 161.936 36.7453C162.776 39.2953 163.626 41.8453 164.476 44.3853C164.906 45.6653 165.336 46.9553 165.756 48.2353C165.966 48.8753 166.186 49.5053 166.406 50.1653C167.046 52.0953 167.686 54.0253 168.326 55.9653C172.016 67.1053 175.856 78.1853 179.746 89.2453C184.746 103.475 189.656 117.725 194.496 131.995C199.206 145.855 203.966 159.695 208.796 173.515C209.736 176.225 210.686 178.925 211.626 181.635C214.236 189.135 216.856 196.635 219.566 204.115C220.626 207.035 221.666 209.965 222.706 212.895C223.186 214.225 223.666 215.555 224.156 216.885C227.486 225.865 230.536 235.315 226.436 244.495C220.326 250.775 215.356 251.475 206.806 251.585C205.486 251.575 204.176 251.575 202.816 251.565C201.436 251.575 200.046 251.575 198.666 251.585C195.776 251.595 192.886 251.595 189.996 251.575C186.306 251.555 182.626 251.585 178.936 251.615C176.086 251.635 173.226 251.635 170.376 251.625C168.356 251.625 166.346 251.645 164.336 251.665C158.006 251.605 153.026 251.325 147.636 247.855C142.836 242.415 141.406 236.735 141.466 229.645C141.456 228.855 141.446 228.055 141.436 227.245C141.416 224.645 141.426 222.055 141.436 219.455C141.426 217.645 141.426 215.825 141.416 214.015C141.406 210.215 141.406 206.425 141.426 202.635C141.436 197.785 141.416 192.925 141.386 188.075C141.356 184.325 141.366 180.585 141.366 176.845C141.366 175.055 141.366 173.265 141.346 171.465C141.336 168.965 141.346 166.465 141.366 163.965C141.356 163.235 141.346 162.495 141.336 161.735C141.406 157.785 141.846 156.185 144.446 153.135C145.286 152.425 146.136 151.725 146.996 150.995C154.476 140.805 155.936 130.485 154.996 117.995C153.056 108.585 147.806 99.7453 140.216 93.8253C129.496 86.8453 119.746 85.0153 106.996 85.9953C95.4659 88.5653 86.9459 95.6453 79.9959 104.995C74.6359 114.645 73.326 125.395 75.686 136.245C78.646 144.715 82.3359 152.895 89.9959 157.995C90.3059 160.555 90.4159 162.875 90.4059 165.445C90.4059 166.215 90.4159 166.975 90.4259 167.765C90.4459 170.315 90.4359 172.865 90.4359 175.415C90.4359 177.185 90.4459 178.955 90.4459 180.725C90.4559 184.445 90.4559 188.165 90.4459 191.895C90.4359 196.645 90.4559 201.395 90.4859 206.155C90.5059 209.815 90.5059 213.485 90.4959 217.145C90.4959 218.895 90.5059 220.645 90.5159 222.395C90.5259 224.855 90.5159 227.315 90.5059 229.775C90.5159 230.495 90.5259 231.215 90.5359 231.945C90.4459 237.945 88.6859 243.355 84.3359 247.635C78.2159 252.545 70.4259 251.705 62.9959 251.625C61.5359 251.625 60.0859 251.635 58.6259 251.635C55.5959 251.635 52.5659 251.625 49.5259 251.595C45.6459 251.565 41.776 251.565 37.896 251.585C34.896 251.595 31.8959 251.585 28.9059 251.575C27.4759 251.565 26.0459 251.565 24.6159 251.575C22.6159 251.585 20.6159 251.555 18.6159 251.535C17.4759 251.525 16.3459 251.525 15.1759 251.515C10.1159 250.695 7.01595 248.155 3.68595 244.375C0.30595 239.625 0.375947 235.725 0.995947 229.995C2.34595 224.705 4.12595 219.585 5.93595 214.435C6.44595 212.965 6.94595 211.485 7.45595 210.005C10.7459 200.405 14.1759 190.855 17.6559 181.325C20.5859 173.265 23.3159 165.145 25.9959 156.995C29.0159 147.845 32.1259 138.735 35.4359 129.685C38.9959 119.955 42.3159 110.155 45.5659 100.315C48.8659 90.3053 52.2659 80.3553 55.9359 70.4753C58.7359 62.8653 61.2959 55.1853 63.8359 47.4953C65.8759 41.3253 67.9359 35.1653 69.9959 28.9953C70.5359 27.4053 70.536 27.4053 71.076 25.7853C71.966 23.1353 72.8859 20.5053 73.8159 17.8753C74.0559 17.1553 74.2959 16.4353 74.5459 15.6953C76.5359 10.1753 79.6459 5.03535 84.7659 1.92535C87.4259 0.825347 89.4359 0.735347 92.3159 0.725347Z" fill="#010101"/>
  </svg>
  